<svg width="155" height="155" viewBox="0 0 155 155" fill="none" xmlns="http://www.w3.org/2000/svg">
<circle cx="77.5" cy="77.5" r="77.5" fill="#FEE766"/>
<path d="M126.881 81C127.614 84.4059 128 87.9405 128 91.5654C128 119.18 105.614 141.565 78 141.565C50.3858 141.565 28 119.18 28 91.5654C28 88.3552 28.3028 85.2157 28.8809 82.1738C39.0715 97.4332 57.037 107.565 77.5 107.565C98.4832 107.565 116.84 96.9114 126.881 81Z" fill="#E04747"/>
<path d="M44.5 47C56.3741 47 66 56.8497 66 69C66 69.7707 65.9603 70.532 65.8848 71.2822C62.1794 64.0358 53.9981 59 44.5 59C35.0017 59 26.8195 64.0356 23.1143 71.2822C23.0387 70.532 23 69.7706 23 69C23 56.8497 32.6259 47 44.5 47Z" fill="#303030"/>
<path d="M111.5 47C123.374 47 133 56.8497 133 69C133 69.7707 132.96 70.532 132.885 71.2822C129.179 64.0358 120.998 59 111.5 59C102.002 59 93.8195 64.0356 90.1143 71.2822C90.0387 70.532 90 69.7706 90 69C90 56.8497 99.6259 47 111.5 47Z" fill="#303030"/>
</svg>
